<svg xmlns="http://www.w3.org/2000/svg" viewBox="0 0 24 24" width="64" height="64">
  <path fill="#7952B3" d="M5.062 12h13.876c-.565 4.736-2.493 7.414-5.786 8.034-3.293.62-6.163-.278-8.614-2.694l-1.737 2.114c3.133 3.108 6.878 4.415 11.233 3.924 4.355-.492 7.375-3.15 9.06-7.976.416-1.223.684-2.553.805-3.995.2-2.088.076-4.179-.377-6.272-1.081-4.082-3.385-6.694-6.911-7.835C15.223 2.708 13.833 2.5 12.406 2.5H2.5v19.613h3v-10.02l-.438-.093z"/>
  <path fill="#7952B3" d="M10.75 16.273a4.35 4.35 0 01-1.696-.324c-.491-.221-.881-.544-1.172-.968-.291-.424-.437-.93-.437-1.518 0-.92.337-1.658 1.012-2.215.675-.557 1.59-.836 2.744-.836h1.723v-.58c0-.42-.119-.743-.358-.967a1.426 1.426 0 00-1.014-.337c-.39 0-.693.102-.913.307a.904.904 0 00-.33.69h-3c0-.64.183-1.216.546-1.73a3.671 3.671 0 011.533-1.243c.654-.302 1.4-.453 2.237-.453.805 0 1.522.146 2.15.438.628.291 1.121.7 1.479 1.225.358.526.537 1.141.537 1.846v4.867H13.18l-.294-1.174a2.383 2.383 0 01-.967.998c-.43.268-.954.402-1.57.402zm.636-2.207c.458 0 .832-.119 1.122-.358.291-.24.504-.598.642-1.077v-.784h-1.341c-.4 0-.72.094-.959.281-.24.188-.359.454-.359.799 0 .345.11.614.33.806.219.192.506.288.859.288z"/>
</svg>
