<svg xmlns="http://www.w3.org/2000/svg" viewBox="0 0 256 256">
  <path fill="#E10098" d="M128 0C57.308 0 0 57.307 0 128s57.308 128 128 128c70.693 0 128-57.307 128-128S198.693 0 128 0z"/>
  <path fill="#fff" d="M128 240c-61.757 0-112-50.243-112-112S66.243 16 128 16s112 50.243 112 112-50.243 112-112 112zm0-192c-44.183 0-80 35.817-80 80s35.817 80 80 80 80-35.817 80-80-35.817-80-80-80z"/>
  <path fill="#fff" d="M128 208c-44.183 0-80-35.817-80-80s35.817-80 80-80 80 35.817 80 80-35.817 80-80 80zm0-144c-35.29 0-64 28.71-64 64s28.71 64 64 64 64-28.71 64-64-28.71-64-64-64z"/>
  <path fill="#fff" d="M128 176c-26.51 0-48-21.49-48-48s21.49-48 48-48 48 21.49 48 48-21.49 48-48 48zm0-80c-17.673 0-32 14.327-32 32s14.327 32 32 32 32-14.327 32-32-14.327-32-32-32z"/>
</svg>
