<svg xmlns="http://www.w3.org/2000/svg" viewBox="0 0 32 32" width="64" height="64">
  <g>
    <!-- HTML5 (Left side) -->
    <path fill="#e44d26" d="M6,28L4,3h24l-2,25l-10,3l-10-3z"/>
    <path fill="#f16529" d="M26,5H16v24.5l8-2.5l2-22z"/>
    <path fill="#ffffff" d="M16,13.5h-4L11.5,8H16h4l0.5,5.5H16z M15.5,18H12l0.5,5L16,24l3.5-1l0.5-5h-4.5V13.5"/>
    
    <!-- CSS3 (Right side, overlapping) -->
    <path fill="#264de4" d="M13,28L11,3h24l-2,25l-10,3l-10-3z" transform="translate(-7, 0)"/>
    <path fill="#2965f1" d="M33,5H23v24.5l8-2.5l2-22z" transform="translate(-7, 0)"/>
    <path fill="#ffffff" d="M31,13.5h-8L22.5,8h8.5l0.5,5.5H23H19.5l0.5,5h7.5l-0.5,7L23,23l-4-1.5v-3.5" transform="translate(-8, 0)"/>
  </g>
</svg>
