<svg xmlns="http://www.w3.org/2000/svg" viewBox="0 0 256 256">
  <path fill="#06B6D4" d="M128 0C57.308 0 0 57.307 0 128s57.308 128 128 128c70.693 0 128-57.307 128-128S198.693 0 128 0z"/>
  <path fill="#fff" d="M64 153.6c0-17.673 14.327-32 32-32h32c17.673 0 32 14.327 32 32s-14.327 32-32 32h-32c-17.673 0-32-14.327-32-32zm32-16c-8.837 0-16 7.163-16 16s7.163 16 16 16h32c8.837 0 16-7.163 16-16s-7.163-16-16-16h-32z"/>
  <path fill="#fff" d="M192 102.4c0-17.673-14.327-32-32-32h-32c-17.673 0-32 14.327-32 32s14.327 32 32 32h32c17.673 0 32-14.327 32-32zm-32 16c8.837 0 16-7.163 16-16s-7.163-16-16-16h-32c-8.837 0-16 7.163-16 16s7.163 16 16 16h32z"/>
</svg>
